<svg xmlns="http://www.w3.org/2000/svg" width="1440" height="110" viewBox="0 0 1440 110" fill="none" role="img"><rect x="0" y="86" width="12" height="24" fill="rgb(26,27,38)"/><rect x="12" y="86" width="12" height="24" fill="rgb(27,28,40)"/><rect x="24" y="86" width="12" height="24" fill="rgb(29,30,42)"/><rect x="36" y="86" width="12" height="24" fill="rgb(30,32,45)"/><rect x="48" y="74" width="12" height="36" fill="rgb(32,33,47)"/><rect x="60" y="74" width="12" height="36" fill="rgb(33,35,50)"/><rect x="72" y="74" width="12" height="36" fill="rgb(35,37,52)"/><rect x="84" y="74" width="12" height="36" fill="rgb(36,38,55)"/><rect x="96" y="74" width="12" height="36" fill="rgb(38,40,57)"/><rect x="108" y="62" width="12" height="48" fill="rgb(39,42,60)"/><rect x="120" y="62" width="12" height="48" fill="rgb(41,44,62)"/><rect x="132" y="62" width="12" height="48" fill="rgb(42,45,65)"/><rect x="144" y="62" width="12" height="48" fill="rgb(44,47,67)"/><rect x="156" y="62" width="12" height="48" fill="rgb(45,49,70)"/><rect x="168" y="50" width="12" height="60" fill="rgb(47,50,72)"/><rect x="180" y="50" width="12" height="60" fill="rgb(48,52,75)"/><rect x="192" y="50" width="12" height="60" fill="rgb(50,54,77)"/><rect x="204" y="50" width="12" height="60" fill="rgb(51,55,80)"/><rect x="216" y="50" width="12" height="60" fill="rgb(53,57,82)"/><rect x="228" y="50" width="12" height="60" fill="rgb(54,59,85)"/><rect x="240" y="50" width="12" height="60" fill="rgb(56,61,87)"/><rect x="252" y="50" width="12" height="60" fill="rgb(57,62,90)"/><rect x="264" y="50" width="12" height="60" fill="rgb(59,64,92)"/><rect x="276" y="50" width="12" height="60" fill="rgb(60,66,94)"/><rect x="288" y="50" width="12" height="60" fill="rgb(62,67,97)"/><rect x="300" y="50" width="12" height="60" fill="rgb(63,69,99)"/><rect x="312" y="50" width="12" height="60" fill="rgb(65,71,102)"/><rect x="324" y="50" width="12" height="60" fill="rgb(66,72,104)"/><rect x="336" y="50" width="12" height="60" fill="rgb(68,74,107)"/><rect x="348" y="50" width="12" height="60" fill="rgb(69,76,109)"/><rect x="360" y="50" width="12" height="60" fill="rgb(71,78,112)"/><rect x="372" y="50" width="12" height="60" fill="rgb(72,79,114)"/><rect x="384" y="50" width="12" height="60" fill="rgb(74,81,117)"/><rect x="396" y="50" width="12" height="60" fill="rgb(75,83,119)"/><rect x="408" y="62" width="12" height="48" fill="rgb(77,84,122)"/><rect x="420" y="62" width="12" height="48" fill="rgb(78,86,124)"/><rect x="432" y="62" width="12" height="48" fill="rgb(80,88,127)"/><rect x="444" y="62" width="12" height="48" fill="rgb(81,89,129)"/><rect x="456" y="62" width="12" height="48" fill="rgb(83,91,132)"/><rect x="468" y="74" width="12" height="36" fill="rgb(84,93,134)"/><rect x="480" y="74" width="12" height="36" fill="rgb(86,95,137)"/><rect x="492" y="74" width="12" height="36" fill="rgb(86,96,139)"/><rect x="504" y="74" width="12" height="36" fill="rgb(87,98,142)"/><rect x="516" y="86" width="12" height="24" fill="rgb(88,100,145)"/><rect x="528" y="86" width="12" height="24" fill="rgb(89,101,148)"/><rect x="540" y="86" width="12" height="24" fill="rgb(90,103,150)"/><rect x="552" y="86" width="12" height="24" fill="rgb(91,105,153)"/><rect x="564" y="86" width="12" height="24" fill="rgb(92,106,156)"/><rect x="576" y="98" width="12" height="12" fill="rgb(93,108,159)"/><rect x="588" y="98" width="12" height="12" fill="rgb(94,110,161)"/><rect x="600" y="98" width="12" height="12" fill="rgb(95,111,164)"/><rect x="612" y="98" width="12" height="12" fill="rgb(95,113,167)"/><rect x="624" y="98" width="12" height="12" fill="rgb(96,115,170)"/><rect x="636" y="98" width="12" height="12" fill="rgb(97,116,172)"/><rect x="648" y="98" width="12" height="12" fill="rgb(98,118,175)"/><rect x="660" y="98" width="12" height="12" fill="rgb(99,120,178)"/><rect x="672" y="98" width="12" height="12" fill="rgb(100,121,181)"/><rect x="684" y="98" width="12" height="12" fill="rgb(101,123,183)"/><rect x="696" y="98" width="12" height="12" fill="rgb(102,125,186)"/><rect x="708" y="98" width="12" height="12" fill="rgb(103,126,189)"/><rect x="720" y="98" width="12" height="12" fill="rgb(104,128,192)"/><rect x="732" y="98" width="12" height="12" fill="rgb(104,130,194)"/><rect x="744" y="98" width="12" height="12" fill="rgb(105,131,197)"/><rect x="756" y="98" width="12" height="12" fill="rgb(106,133,200)"/><rect x="768" y="98" width="12" height="12" fill="rgb(107,135,203)"/><rect x="780" y="98" width="12" height="12" fill="rgb(108,136,205)"/><rect x="792" y="98" width="12" height="12" fill="rgb(109,138,208)"/><rect x="804" y="98" width="12" height="12" fill="rgb(110,140,211)"/><rect x="816" y="98" width="12" height="12" fill="rgb(111,141,214)"/><rect x="828" y="98" width="12" height="12" fill="rgb(112,143,216)"/><rect x="840" y="98" width="12" height="12" fill="rgb(113,145,219)"/><rect x="852" y="98" width="12" height="12" fill="rgb(113,147,222)"/><rect x="864" y="98" width="12" height="12" fill="rgb(114,148,225)"/><rect x="876" y="98" width="12" height="12" fill="rgb(115,150,227)"/><rect x="888" y="98" width="12" height="12" fill="rgb(116,152,230)"/><rect x="900" y="86" width="12" height="24" fill="rgb(117,153,233)"/><rect x="912" y="86" width="12" height="24" fill="rgb(118,155,236)"/><rect x="924" y="86" width="12" height="24" fill="rgb(119,157,238)"/><rect x="936" y="86" width="12" height="24" fill="rgb(120,158,241)"/><rect x="948" y="74" width="12" height="36" fill="rgb(121,160,244)"/><rect x="960" y="74" width="12" height="36" fill="rgb(122,161,247)"/><rect x="972" y="74" width="12" height="36" fill="rgb(123,161,247)"/><rect x="984" y="74" width="12" height="36" fill="rgb(125,161,247)"/><rect x="996" y="74" width="12" height="36" fill="rgb(126,161,247)"/><rect x="1008" y="62" width="12" height="48" fill="rgb(128,161,247)"/><rect x="1020" y="62" width="12" height="48" fill="rgb(130,160,247)"/><rect x="1032" y="62" width="12" height="48" fill="rgb(131,160,247)"/><rect x="1044" y="62" width="12" height="48" fill="rgb(133,160,247)"/><rect x="1056" y="62" width="12" height="48" fill="rgb(135,160,247)"/><rect x="1068" y="50" width="12" height="60" fill="rgb(136,160,247)"/><rect x="1080" y="50" width="12" height="60" fill="rgb(138,159,247)"/><rect x="1092" y="50" width="12" height="60" fill="rgb(139,159,247)"/><rect x="1104" y="50" width="12" height="60" fill="rgb(141,159,247)"/><rect x="1116" y="50" width="12" height="60" fill="rgb(143,159,247)"/><rect x="1128" y="50" width="12" height="60" fill="rgb(144,159,247)"/><rect x="1140" y="50" width="12" height="60" fill="rgb(146,158,247)"/><rect x="1152" y="50" width="12" height="60" fill="rgb(148,158,247)"/><rect x="1164" y="50" width="12" height="60" fill="rgb(149,158,247)"/><rect x="1176" y="50" width="12" height="60" fill="rgb(151,158,247)"/><rect x="1188" y="50" width="12" height="60" fill="rgb(152,158,247)"/><rect x="1200" y="50" width="12" height="60" fill="rgb(154,157,247)"/><rect x="1212" y="50" width="12" height="60" fill="rgb(156,157,247)"/><rect x="1224" y="50" width="12" height="60" fill="rgb(157,157,247)"/><rect x="1236" y="50" width="12" height="60" fill="rgb(159,157,247)"/><rect x="1248" y="50" width="12" height="60" fill="rgb(161,157,247)"/><rect x="1260" y="50" width="12" height="60" fill="rgb(162,156,247)"/><rect x="1272" y="50" width="12" height="60" fill="rgb(164,156,247)"/><rect x="1284" y="50" width="12" height="60" fill="rgb(165,156,247)"/><rect x="1296" y="50" width="12" height="60" fill="rgb(167,156,247)"/><rect x="1308" y="62" width="12" height="48" fill="rgb(169,156,247)"/><rect x="1320" y="62" width="12" height="48" fill="rgb(170,155,247)"/><rect x="1332" y="62" width="12" height="48" fill="rgb(172,155,247)"/><rect x="1344" y="62" width="12" height="48" fill="rgb(174,155,247)"/><rect x="1356" y="62" width="12" height="48" fill="rgb(175,155,247)"/><rect x="1368" y="74" width="12" height="36" fill="rgb(177,155,247)"/><rect x="1380" y="74" width="12" height="36" fill="rgb(179,154,247)"/><rect x="1392" y="74" width="12" height="36" fill="rgb(180,154,247)"/><rect x="1404" y="74" width="12" height="36" fill="rgb(182,154,247)"/><rect x="1416" y="86" width="12" height="24" fill="rgb(183,154,247)"/><rect x="1428" y="86" width="12" height="24" fill="rgb(185,154,247)"/><rect x="0" y="74" width="12" height="36" fill="rgb(26,27,38)" opacity="0.45"/><rect x="12" y="74" width="12" height="36" fill="rgb(27,28,40)" opacity="0.45"/><rect x="24" y="74" width="12" height="36" fill="rgb(29,30,42)" opacity="0.45"/><rect x="36" y="74" width="12" height="36" fill="rgb(30,32,45)" opacity="0.45"/><rect x="48" y="86" width="12" height="24" fill="rgb(32,33,47)" opacity="0.45"/><rect x="60" y="86" width="12" height="24" fill="rgb(33,35,50)" opacity="0.45"/><rect x="72" y="86" width="12" height="24" fill="rgb(35,37,52)" opacity="0.45"/><rect x="84" y="86" width="12" height="24" fill="rgb(36,38,55)" opacity="0.45"/><rect x="96" y="86" width="12" height="24" fill="rgb(38,40,57)" opacity="0.45"/><rect x="108" y="98" width="12" height="12" fill="rgb(39,42,60)" opacity="0.45"/><rect x="120" y="98" width="12" height="12" fill="rgb(41,44,62)" opacity="0.45"/><rect x="132" y="98" width="12" height="12" fill="rgb(42,45,65)" opacity="0.45"/><rect x="144" y="98" width="12" height="12" fill="rgb(44,47,67)" opacity="0.45"/><rect x="156" y="98" width="12" height="12" fill="rgb(45,49,70)" opacity="0.45"/><rect x="168" y="98" width="12" height="12" fill="rgb(47,50,72)" opacity="0.45"/><rect x="180" y="98" width="12" height="12" fill="rgb(48,52,75)" opacity="0.45"/><rect x="192" y="98" width="12" height="12" fill="rgb(50,54,77)" opacity="0.45"/><rect x="204" y="98" width="12" height="12" fill="rgb(51,55,80)" opacity="0.45"/><rect x="216" y="98" width="12" height="12" fill="rgb(53,57,82)" opacity="0.45"/><rect x="228" y="98" width="12" height="12" fill="rgb(54,59,85)" opacity="0.45"/><rect x="240" y="98" width="12" height="12" fill="rgb(56,61,87)" opacity="0.45"/><rect x="252" y="98" width="12" height="12" fill="rgb(57,62,90)" opacity="0.45"/><rect x="264" y="98" width="12" height="12" fill="rgb(59,64,92)" opacity="0.45"/><rect x="276" y="98" width="12" height="12" fill="rgb(60,66,94)" opacity="0.45"/><rect x="288" y="98" width="12" height="12" fill="rgb(62,67,97)" opacity="0.45"/><rect x="300" y="98" width="12" height="12" fill="rgb(63,69,99)" opacity="0.45"/><rect x="312" y="98" width="12" height="12" fill="rgb(65,71,102)" opacity="0.45"/><rect x="324" y="98" width="12" height="12" fill="rgb(66,72,104)" opacity="0.45"/><rect x="336" y="98" width="12" height="12" fill="rgb(68,74,107)" opacity="0.45"/><rect x="348" y="98" width="12" height="12" fill="rgb(69,76,109)" opacity="0.45"/><rect x="360" y="98" width="12" height="12" fill="rgb(71,78,112)" opacity="0.45"/><rect x="372" y="98" width="12" height="12" fill="rgb(72,79,114)" opacity="0.45"/><rect x="384" y="98" width="12" height="12" fill="rgb(74,81,117)" opacity="0.45"/><rect x="396" y="86" width="12" height="24" fill="rgb(75,83,119)" opacity="0.45"/><rect x="408" y="86" width="12" height="24" fill="rgb(77,84,122)" opacity="0.45"/><rect x="420" y="86" width="12" height="24" fill="rgb(78,86,124)" opacity="0.45"/><rect x="432" y="86" width="12" height="24" fill="rgb(80,88,127)" opacity="0.45"/><rect x="444" y="86" width="12" height="24" fill="rgb(81,89,129)" opacity="0.45"/><rect x="456" y="74" width="12" height="36" fill="rgb(83,91,132)" opacity="0.45"/><rect x="468" y="74" width="12" height="36" fill="rgb(84,93,134)" opacity="0.45"/><rect x="480" y="74" width="12" height="36" fill="rgb(86,95,137)" opacity="0.45"/><rect x="492" y="74" width="12" height="36" fill="rgb(86,96,139)" opacity="0.45"/><rect x="504" y="74" width="12" height="36" fill="rgb(87,98,142)" opacity="0.45"/><rect x="516" y="74" width="12" height="36" fill="rgb(88,100,145)" opacity="0.45"/><rect x="528" y="74" width="12" height="36" fill="rgb(89,101,148)" opacity="0.45"/><rect x="540" y="74" width="12" height="36" fill="rgb(90,103,150)" opacity="0.45"/><rect x="552" y="74" width="12" height="36" fill="rgb(91,105,153)" opacity="0.45"/><rect x="564" y="74" width="12" height="36" fill="rgb(92,106,156)" opacity="0.45"/><rect x="576" y="74" width="12" height="36" fill="rgb(93,108,159)" opacity="0.45"/><rect x="588" y="74" width="12" height="36" fill="rgb(94,110,161)" opacity="0.45"/><rect x="600" y="74" width="12" height="36" fill="rgb(95,111,164)" opacity="0.45"/><rect x="612" y="74" width="12" height="36" fill="rgb(95,113,167)" opacity="0.45"/><rect x="624" y="74" width="12" height="36" fill="rgb(96,115,170)" opacity="0.45"/><rect x="636" y="74" width="12" height="36" fill="rgb(97,116,172)" opacity="0.45"/><rect x="648" y="74" width="12" height="36" fill="rgb(98,118,175)" opacity="0.45"/><rect x="660" y="74" width="12" height="36" fill="rgb(99,120,178)" opacity="0.45"/><rect x="672" y="74" width="12" height="36" fill="rgb(100,121,181)" opacity="0.45"/><rect x="684" y="86" width="12" height="24" fill="rgb(101,123,183)" opacity="0.45"/><rect x="696" y="86" width="12" height="24" fill="rgb(102,125,186)" opacity="0.45"/><rect x="708" y="86" width="12" height="24" fill="rgb(103,126,189)" opacity="0.45"/><rect x="720" y="86" width="12" height="24" fill="rgb(104,128,192)" opacity="0.45"/><rect x="732" y="86" width="12" height="24" fill="rgb(104,130,194)" opacity="0.45"/><rect x="744" y="98" width="12" height="12" fill="rgb(105,131,197)" opacity="0.45"/><rect x="756" y="98" width="12" height="12" fill="rgb(106,133,200)" opacity="0.45"/><rect x="768" y="98" width="12" height="12" fill="rgb(107,135,203)" opacity="0.45"/><rect x="780" y="98" width="12" height="12" fill="rgb(108,136,205)" opacity="0.45"/><rect x="792" y="98" width="12" height="12" fill="rgb(109,138,208)" opacity="0.45"/><rect x="804" y="98" width="12" height="12" fill="rgb(110,140,211)" opacity="0.45"/><rect x="816" y="98" width="12" height="12" fill="rgb(111,141,214)" opacity="0.45"/><rect x="828" y="98" width="12" height="12" fill="rgb(112,143,216)" opacity="0.45"/><rect x="840" y="98" width="12" height="12" fill="rgb(113,145,219)" opacity="0.45"/><rect x="852" y="98" width="12" height="12" fill="rgb(113,147,222)" opacity="0.45"/><rect x="864" y="98" width="12" height="12" fill="rgb(114,148,225)" opacity="0.45"/><rect x="876" y="98" width="12" height="12" fill="rgb(115,150,227)" opacity="0.45"/><rect x="888" y="98" width="12" height="12" fill="rgb(116,152,230)" opacity="0.45"/><rect x="900" y="98" width="12" height="12" fill="rgb(117,153,233)" opacity="0.45"/><rect x="912" y="98" width="12" height="12" fill="rgb(118,155,236)" opacity="0.45"/><rect x="924" y="98" width="12" height="12" fill="rgb(119,157,238)" opacity="0.45"/><rect x="936" y="98" width="12" height="12" fill="rgb(120,158,241)" opacity="0.45"/><rect x="948" y="98" width="12" height="12" fill="rgb(121,160,244)" opacity="0.45"/><rect x="960" y="98" width="12" height="12" fill="rgb(122,161,247)" opacity="0.45"/><rect x="972" y="98" width="12" height="12" fill="rgb(123,161,247)" opacity="0.45"/><rect x="984" y="98" width="12" height="12" fill="rgb(125,161,247)" opacity="0.45"/><rect x="996" y="98" width="12" height="12" fill="rgb(126,161,247)" opacity="0.45"/><rect x="1008" y="98" width="12" height="12" fill="rgb(128,161,247)" opacity="0.45"/><rect x="1020" y="98" width="12" height="12" fill="rgb(130,160,247)" opacity="0.45"/><rect x="1032" y="86" width="12" height="24" fill="rgb(131,160,247)" opacity="0.45"/><rect x="1044" y="86" width="12" height="24" fill="rgb(133,160,247)" opacity="0.45"/><rect x="1056" y="86" width="12" height="24" fill="rgb(135,160,247)" opacity="0.45"/><rect x="1068" y="86" width="12" height="24" fill="rgb(136,160,247)" opacity="0.45"/><rect x="1080" y="86" width="12" height="24" fill="rgb(138,159,247)" opacity="0.45"/><rect x="1092" y="74" width="12" height="36" fill="rgb(139,159,247)" opacity="0.45"/><rect x="1104" y="74" width="12" height="36" fill="rgb(141,159,247)" opacity="0.45"/><rect x="1116" y="74" width="12" height="36" fill="rgb(143,159,247)" opacity="0.45"/><rect x="1128" y="74" width="12" height="36" fill="rgb(144,159,247)" opacity="0.45"/><rect x="1140" y="74" width="12" height="36" fill="rgb(146,158,247)" opacity="0.45"/><rect x="1152" y="74" width="12" height="36" fill="rgb(148,158,247)" opacity="0.45"/><rect x="1164" y="74" width="12" height="36" fill="rgb(149,158,247)" opacity="0.45"/><rect x="1176" y="74" width="12" height="36" fill="rgb(151,158,247)" opacity="0.45"/><rect x="1188" y="74" width="12" height="36" fill="rgb(152,158,247)" opacity="0.45"/><rect x="1200" y="74" width="12" height="36" fill="rgb(154,157,247)" opacity="0.45"/><rect x="1212" y="74" width="12" height="36" fill="rgb(156,157,247)" opacity="0.45"/><rect x="1224" y="74" width="12" height="36" fill="rgb(157,157,247)" opacity="0.45"/><rect x="1236" y="74" width="12" height="36" fill="rgb(159,157,247)" opacity="0.45"/><rect x="1248" y="74" width="12" height="36" fill="rgb(161,157,247)" opacity="0.45"/><rect x="1260" y="74" width="12" height="36" fill="rgb(162,156,247)" opacity="0.45"/><rect x="1272" y="74" width="12" height="36" fill="rgb(164,156,247)" opacity="0.45"/><rect x="1284" y="74" width="12" height="36" fill="rgb(165,156,247)" opacity="0.45"/><rect x="1296" y="74" width="12" height="36" fill="rgb(167,156,247)" opacity="0.45"/><rect x="1308" y="74" width="12" height="36" fill="rgb(169,156,247)" opacity="0.45"/><rect x="1320" y="74" width="12" height="36" fill="rgb(170,155,247)" opacity="0.45"/><rect x="1332" y="86" width="12" height="24" fill="rgb(172,155,247)" opacity="0.45"/><rect x="1344" y="86" width="12" height="24" fill="rgb(174,155,247)" opacity="0.45"/><rect x="1356" y="86" width="12" height="24" fill="rgb(175,155,247)" opacity="0.45"/><rect x="1368" y="86" width="12" height="24" fill="rgb(177,155,247)" opacity="0.45"/><rect x="1380" y="86" width="12" height="24" fill="rgb(179,154,247)" opacity="0.45"/><rect x="1392" y="98" width="12" height="12" fill="rgb(180,154,247)" opacity="0.45"/><rect x="1404" y="98" width="12" height="12" fill="rgb(182,154,247)" opacity="0.45"/><rect x="1416" y="98" width="12" height="12" fill="rgb(183,154,247)" opacity="0.45"/><rect x="1428" y="98" width="12" height="12" fill="rgb(185,154,247)" opacity="0.45"/></svg>